# xmcd
# 
# Track frame offsets:
#     150
#     19140
#     37109
#     54353
#     71162
#     85101
#     104829
#     124069
#     144169
#     162277
#     181716
#     213108
# 
# Disc length: 3156
# 
# Revision: 1
# Processed by: cddbd v1.5.1PL0 Copyright (c) Steve Scherf et al.
# Submitted via: BonkEnc v1.0beta3
# 
DISCID=a10c520c
DTITLE=Keith Anderson - Three Chord Country And American Rock and Roll
DYEAR=2005
DGENRE=Country
TTITLE0=Three Chord Country And American Rock and Roll
TTITLE1=Podunk
TTITLE2=Wrap Around
TTITLE3=XXL
TTITLE4=Pickin' Wildflowers
TTITLE5=Every Time I Hear Your Name
TTITLE6=Stick It
TTITLE7=Plan B
TTITLE8=Lazy With Your Love
TTITLE9=The Clothes Don't Make The Man
TTITLE10=I'll Know When I Get There
TTITLE11=Data
EXTD=
EXTT0=
EXTT1=
EXTT2=
EXTT3=
EXTT4=
EXTT5=
EXTT6=
EXTT7=
EXTT8=
EXTT9=
EXTT10=
EXTT11=
PLAYORDER=
